# File created by Blade
# Date/Time:  Thu Jan 15 19:03:44 2015
#---------------------------------------------------------
:version 1.10
:name HOM
:units
  mass 1.0
  length 1.000000
  angle deg
:documentation
     Acclaim Skeleton File
:root
   axis xyz
   order TX TY TZ RX RY RZ
   position 0.000000 0.000000 0.000000
   orientation 0 0 0
:bonedata
   begin
      id 1
      name Spine_dum
      direction 0.000000 1.000000 0.000000
      length 4.354460
      axis 0.0 0.0 0.0 xyz
   end
   begin
      id 2
      name LeftUpLeg_dum
      direction 1.000000 0.000000 0.000000
      length 4.291077
      axis 0.0 0.0 0.0 xyz
   end
   begin
      id 3
      name RightUpLeg_dum
      direction -1.000000 0.000000 0.000000
      length 4.291077
      axis 0.0 0.0 0.0 xyz
   end
   begin
      id 4
      name Spine
      direction 0.000000 1.000000 0.000000
      length 0.000000
      axis 0.0 0.0 0.0 xyz
      dof rx ry rz
   end
   begin
      id 5
      name Spine_dum1
      direction 0.000000 1.000000 0.000000
      length 16.581769
      axis 0.0 0.0 0.0 xyz
   end
   begin
      id 6
      name Spine_dum2
      direction 0.000000 1.000000 0.000000
      length 12.903700
      axis 0.0 0.0 0.0 xyz
   end
   begin
      id 7
      name Spine_dum3
      direction 0.000000 1.000000 0.000000
      length 12.903700
      axis 0.0 0.0 0.0 xyz
   end
   begin
      id 8
      name Head
      direction 0.000000 1.000000 0.000000
      length 4.527550
      axis 0.0 0.0 0.0 xyz
      dof rx ry rz
   end
   begin
      id 9
      name LeftShoulder
      direction 1.000000 0.000000 0.000000
      length 6.942033
      axis 0.0 0.0 -90.0 xyz
      dof rx ry rz
   end
   begin
      id 10
      name LeftArm
      direction 1.000000 0.000000 0.000000
      length 11.010391
      axis 0.0 0.0 -90.0 xyz
      dof rx ry rz
   end
   begin
      id 11
      name LeftForeArm
      direction 1.000000 0.000000 0.000000
      length 8.054994
      axis 0.0 0.0 -90.0 xyz
      dof rz ry rx
   end
   begin
      id 12
      name LeftHand
      direction 0.000000 0.000000 0.000000
      length 0.000000
      axis 0.0 0.0 -90.0 xyz
      dof rx ry rz
   end
   begin
      id 13
      name LeftHand_dum1
      direction 0.000000 0.000000 0.000000
      length 0.000000
      axis 0.0 0.0 -90.0 xyz
   end
   begin
      id 14
      name LeftHand_dum2
      direction 1.000000 0.000000 0.000000
      length 3.937000
      axis 0.0 0.0 -90.0 xyz
   end
   begin
      id 15
      name LeftHandThumb1
      direction 0.000000 0.000000 1.000000
      length 3.937000
      axis 0.0 0.0 -90.0 xyz
      dof rx ry rz
   end
   begin
      id 16
      name RightShoulder
      direction -1.000000 0.000000 0.000000
      length 6.942033
      axis 0.0 0.0 90.0 xyz
      dof rx ry rz
   end
   begin
      id 17
      name RightArm
      direction -1.000000 0.000000 0.000000
      length 11.010391
      axis 0.0 0.0 90.0 xyz
      dof rx ry rz
   end
   begin
      id 18
      name RightForeArm
      direction -1.000000 0.000000 0.000000
      length 8.054994
      axis 0.0 0.0 90.0 xyz
      dof rz ry rx
   end
   begin
      id 19
      name RightHand
      direction 0.000000 0.000000 0.000000
      length 0.000000
      axis 0.0 0.0 90.0 xyz
      dof rx ry rz
   end
   begin
      id 20
      name RightHand_dum1
      direction 0.000000 0.000000 0.000000
      length 0.000000
      axis 0.0 0.0 90.0 xyz
   end
   begin
      id 21
      name RightHand_dum2
      direction -1.000000 0.000000 0.000000
      length 3.937000
      axis 0.0 0.0 90.0 xyz
   end
   begin
      id 22
      name RightHandThumb1
      direction 0.000000 0.000000 1.000000
      length 3.937000
      axis 0.0 0.0 90.0 xyz
      dof rx ry rz
   end
   begin
      id 23
      name LeftUpLeg
      direction 0.000000 -1.000000 0.000000
      length 17.039958
      axis 0.0 0.0 0.0 xyz
      dof rx ry rz
   end
   begin
      id 24
      name LeftLeg
      direction 0.000000 -1.000000 0.000000
      length 16.939743
      axis 0.0 0.0 0.0 xyz
      dof rx ry rz
   end
   begin
      id 25
      name LeftFoot
      direction 0.000000 -0.258819 0.965926
      length 5.235044
      axis 15.0 0.0 0.0 xyz
      dof rx ry rz
   end
   begin
      id 26
      name LeftToeBase
      direction 0.000000 0.000000 1.000000
      length 2.952750
      axis 0.0 0.0 0.0 xyz
      dof rx ry rz
   end
   begin
      id 27
      name RightUpLeg
      direction 0.000000 -1.000000 0.000000
      length 17.039958
      axis 0.0 0.0 0.0 xyz
      dof rx ry rz
   end
   begin
      id 28
      name RightLeg
      direction 0.000000 -1.000000 0.000000
      length 16.939743
      axis 0.0 0.0 0.0 xyz
      dof rx ry rz
   end
   begin
      id 29
      name RightFoot
      direction 0.000000 -0.258819 0.965926
      length 5.235044
      axis 15.0 0.0 0.0 xyz
      dof rx ry rz
   end
   begin
      id 30
      name RightToeBase
      direction 0.000000 0.000000 1.000000
      length 2.952750
      axis 0.0 0.0 0.0 xyz
      dof rx ry rz
   end
:hierarchy
   begin
      root Spine_dum LeftUpLeg_dum RightUpLeg_dum
      Spine_dum Spine
      LeftUpLeg_dum LeftUpLeg
      RightUpLeg_dum RightUpLeg
      Spine Spine_dum1 Spine_dum2 Spine_dum3
      Spine_dum1 Head
      Spine_dum2 LeftShoulder
      Spine_dum3 RightShoulder
      LeftShoulder LeftArm
      LeftArm LeftForeArm
      LeftForeArm LeftHand
      LeftHand LeftHand_dum1 LeftHand_dum2
      LeftHand_dum1 LeftHandThumb1
      RightShoulder RightArm
      RightArm RightForeArm
      RightForeArm RightHand
      RightHand RightHand_dum1 RightHand_dum2
      RightHand_dum1 RightHandThumb1
      LeftUpLeg LeftLeg
      LeftLeg LeftFoot
      LeftFoot LeftToeBase
      RightUpLeg RightLeg
      RightLeg RightFoot
      RightFoot RightToeBase
   end

# File created by Blade
# Date/Time:  Thu Jan 15 19:03:33 2015
# Frame Rate: 120.000 fps
#------------------------------------------------------
:FULLY-SPECIFIED
:DEGREES
2232
root -1.677731 37.686203 -5.623071 -126.600138 27.946130 -143.901236
Spine -14.180305 23.244473 -9.324234
Head -26.624761 21.591113 25.253818
LeftShoulder -3.741737 10.742589 8.482018
LeftArm 13.485193 -9.106971 -77.406666
LeftForeArm 0.000000 -6.128501 13.932960
LeftHand 6.222775 -0.000000 4.754827
LeftHandThumb1 -26.253704 33.147579 0.000000
RightShoulder -18.973992 -6.913702 10.743870
RightArm 6.659105 -33.822171 63.104357
RightForeArm 0.000000 -21.719006 30.629371
RightHand 6.879622 -0.000000 13.383756
RightHandThumb1 -24.326973 -32.862282 -0.000000
LeftUpLeg -50.360124 44.684820 -14.689061
LeftLeg -7.362583 -0.000000 0.000000
LeftFoot -20.673257 15.845240 -20.381732
LeftToeBase 32.486408 -0.000000 -0.000000
RightUpLeg -0.044749 -26.064760 -3.322782
RightLeg 91.105124 -0.000000 -0.000000
RightFoot 29.509000 -40.198950 -13.116678
RightToeBase 16.675431 -0.000000 -0.000000
2233
root -1.707555 37.648417 -5.625736 -127.402579 28.129456 -144.613596
Spine -13.933059 23.015956 -9.527395
Head -26.250881 21.365028 25.345165
LeftShoulder -3.703249 10.686637 8.548068
LeftArm 13.558786 -9.091239 -77.380121
LeftForeArm -0.000000 -6.150530 14.081957
LeftHand 6.326036 -0.000000 4.671608
LeftHandThumb1 -26.253704 33.147579 0.000000
RightShoulder -18.983955 -6.927850 10.587127
RightArm 6.766857 -33.567599 63.082136
RightForeArm 0.000000 -21.825317 30.585121
RightHand 6.875927 0.000000 13.236860
RightHandThumb1 -24.326973 -32.862282 -0.000000
LeftUpLeg -49.841845 44.482912 -15.001175
LeftLeg -7.253626 -0.000000 0.000000
LeftFoot -20.604326 15.705989 -20.325380
LeftToeBase 32.288203 -0.000000 -0.000000
RightUpLeg -0.645976 -26.265180 -2.752970
RightLeg 90.488916 -0.000000 -0.000000
RightFoot 29.102996 -39.871671 -12.527247
RightToeBase 16.648592 -0.000000 -0.000000
2234
root -1.737437 37.611415 -5.628002 -128.192328 28.292072 -145.365083
Spine -13.725186 22.748729 -9.766574
Head -25.882561 21.156886 25.422170
LeftShoulder -3.686804 10.664807 8.629669
LeftArm 13.671092 -9.031505 -77.366134
LeftForeArm -0.000000 -5.986513 14.232852
LeftHand 6.314285 -0.000000 4.789392
LeftHandThumb1 -26.253704 33.147579 0.000000
RightShoulder -18.990172 -6.911258 10.434203
RightArm 6.815705 -33.264012 63.098826
RightForeArm 0.000000 -21.951946 30.594592
RightHand 6.798233 0.000000 13.049890
RightHandThumb1 -24.326973 -32.862282 -0.000000
LeftUpLeg -49.364433 44.231959 -15.329581
LeftLeg -7.108405 -0.000000 0.000000
LeftFoot -20.515066 15.585141 -20.280659
LeftToeBase 32.080890 -0.000000 -0.000000
RightUpLeg -1.307874 -26.438328 -2.122995
RightLeg 89.812588 -0.000000 -0.000000
RightFoot 28.744262 -39.356130 -12.024692
RightToeBase 16.506078 -0.000000 -0.000000
2235
root -1.768835 37.572667 -5.628580 -129.027218 28.465876 -146.133219
Spine -13.457953 22.498479 -10.006226
Head -25.549287 20.941360 25.467669
LeftShoulder -3.689534 10.665591 8.643453
LeftArm 13.820013 -9.094782 -77.332044
LeftForeArm -0.000000 -5.809354 14.411500
LeftHand 6.379034 -0.000000 4.838562
LeftHandThumb1 -26.253704 33.147579 0.000000
RightShoulder -18.986769 -6.923795 10.285639
RightArm 6.897595 -32.853151 63.115801
RightForeArm -0.000000 -22.133333 30.594605
RightHand 6.839551 -0.000000 13.061958
RightHandThumb1 -24.326973 -32.862282 -0.000000
LeftUpLeg -48.876379 44.017437 -15.692482
LeftLeg -6.958618 -0.000000 0.000000
LeftFoot -20.411912 15.453991 -20.193872
LeftToeBase 31.625385 -0.000000 -0.000000
RightUpLeg -1.947016 -26.558672 -1.516838
RightLeg 89.078210 -0.000000 -0.000000
RightFoot 28.116341 -38.911114 -11.273515
RightToeBase 16.574549 -0.000000 -0.000000
2236
root -1.801465 37.532506 -5.628362 -129.879892 28.617513 -146.916306
Spine -13.183970 22.220322 -10.230172
Head -25.181996 20.719220 25.504590
LeftShoulder -3.691569 10.660740 8.690069
LeftArm 13.953640 -8.973285 -77.266340
LeftForeArm 0.000000 -5.879217 14.536637
LeftHand 6.379441 -0.000000 4.806990
LeftHandThumb1 -26.253704 33.147579 0.000000
RightShoulder -18.963916 -6.958063 10.112945
RightArm 7.039646 -32.429351 63.125781
RightForeArm -0.000000 -22.370576 30.520249
RightHand 6.908993 -0.000000 13.083764
RightHandThumb1 -24.326973 -32.862282 -0.000000
LeftUpLeg -48.330626 43.755634 -15.988153
LeftLeg -6.816196 -0.000000 0.000000
LeftFoot -20.328301 15.383469 -20.148843
LeftToeBase 31.616733 -0.000000 -0.000000
RightUpLeg -2.596244 -26.614641 -0.890096
RightLeg 88.279449 -0.000000 -0.000000
RightFoot 27.485248 -38.453718 -10.475364
RightToeBase 16.422628 -0.000000 -0.000000
2237
root -1.831740 37.491024 -5.628385 -130.771325 28.759031 -147.740693
Spine -12.892656 21.949817 -10.487057
Head -24.835585 20.461530 25.532674
LeftShoulder -3.659694 10.631440 8.736714
LeftArm 14.017828 -8.890881 -77.203399
LeftForeArm -0.000000 -5.785070 14.751470
LeftHand 6.373434 -0.000000 5.038929
LeftHandThumb1 -26.253704 33.147579 0.000000
RightShoulder -18.976597 -6.958450 9.947518
RightArm 7.126902 -32.062262 63.175597
RightForeArm -0.000000 -22.319445 30.468328
RightHand 6.833618 0.000000 12.982108
RightHandThumb1 -24.326973 -32.862282 -0.000000
LeftUpLeg -47.882167 43.556668 -16.420449
LeftLeg -6.613877 -0.000000 0.000000
LeftFoot -20.229171 15.246975 -20.029475
LeftToeBase 31.456205 -0.000000 -0.000000
RightUpLeg -3.212829 -26.653478 -0.276038
RightLeg 87.371025 -0.000000 -0.000000
RightFoot 26.645928 -38.002274 -9.509386
RightToeBase 16.573363 -0.000000 -0.000000
2238
root -1.860322 37.449000 -5.630437 -131.701310 28.900437 -148.563873
Spine -12.567298 21.674133 -10.743697
Head -24.479071 20.261101 25.560179
LeftShoulder -3.659817 10.659024 8.743801
LeftArm 14.144217 -9.017631 -77.184172
LeftForeArm -0.000000 -5.569539 14.920087
LeftHand 6.488601 -0.000000 5.094114
LeftHandThumb1 -26.253704 33.147579 0.000000
RightShoulder -18.996945 -7.039446 9.816887
RightArm 7.350424 -31.771080 63.129425
RightForeArm 0.000000 -22.205781 30.393876
RightHand 6.857293 -0.000000 12.297576
RightHandThumb1 -24.326973 -32.862282 -0.000000
LeftUpLeg -47.375926 43.385160 -16.821540
LeftLeg -6.418726 -0.000000 0.000000
LeftFoot -20.122878 15.122070 -19.904109
LeftToeBase 31.160784 -0.000000 -0.000000
RightUpLeg -3.776374 -26.637231 0.323652
RightLeg 86.383043 -0.000000 -0.000000
RightFoot 25.580403 -37.574772 -8.447974
RightToeBase 16.838230 -0.000000 -0.000000
2239
root -1.888078 37.404162 -5.631912 -132.641038 28.987416 -149.425202
Spine -12.258172 21.358438 -10.994658
Head -24.109907 20.064566 25.565466
LeftShoulder -3.628494 10.655111 8.775350
LeftArm 14.196166 -9.109211 -77.169727
LeftForeArm -0.000000 -5.526873 15.088479
LeftHand 6.579281 -0.000000 5.185385
LeftHandThumb1 -26.253704 33.147579 0.000000
RightShoulder -19.016060 -7.074650 9.659363
RightArm 7.516206 -31.477065 63.134277
RightForeArm 0.000000 -22.270715 30.307047
RightHand 6.800563 0.000000 12.288838
RightHandThumb1 -24.326973 -32.862282 -0.000000
LeftUpLeg -46.816083 43.125061 -17.150418
LeftLeg -6.248079 -0.000000 0.000000
LeftFoot -20.017974 15.093524 -19.750531
LeftToeBase 30.734719 -0.000000 -0.000000
RightUpLeg -4.331797 -26.586810 0.967874
RightLeg 85.269150 -0.000000 -0.000000
RightFoot 24.584187 -37.042065 -7.506080
RightToeBase 16.767530 -0.000000 -0.000000
2240
root -1.918840 37.361379 -5.627040 -133.554406 29.052972 -150.275802
Spine -11.951930 21.033453 -11.233030
Head -23.749256 19.871370 25.546482
LeftShoulder -3.599909 10.663953 8.803660
LeftArm 14.257701 -9.261661 -77.180158
LeftForeArm -0.000000 -5.396057 15.237458
LeftHand 6.539291 -0.000000 5.327994
LeftHandThumb1 -26.253704 33.147579 0.000000
RightShoulder -18.979340 -7.033174 9.450394
RightArm 7.603636 -31.256695 63.178917
RightForeArm -0.000000 -22.488808 30.259780
RightHand 6.700379 -0.000000 12.196177
RightHandThumb1 -24.326973 -32.862282 -0.000000
LeftUpLeg -46.353336 42.871842 -17.516108
LeftLeg -6.008506 -0.000000 0.000000
LeftFoot -19.903799 15.054878 -19.581375
LeftToeBase 30.555446 -0.000000 -0.000000
RightUpLeg -4.935030 -26.453902 1.671375
RightLeg 84.095550 -0.000000 -0.000000
RightFoot 23.404827 -36.525543 -6.577289
RightToeBase 16.795963 -0.000000 -0.000000
2241
root -1.963292 37.318652 -5.614143 -134.332350 29.213267 -151.119960
Spine -11.792525 20.763658 -11.602346
Head -23.394580 19.660196 25.546967
LeftShoulder -3.545500 10.653043 8.827669
LeftArm 14.244528 -9.318249 -77.166033
LeftForeArm -0.000000 -5.541837 15.449237
LeftHand 6.573332 -0.000000 5.492214
LeftHandThumb1 -26.253704 33.147579 0.000000
RightShoulder -18.969726 -7.077947 9.281677
RightArm 7.808515 -31.074636 63.122480
RightForeArm -0.000000 -22.475823 30.296669
RightHand 6.499039 0.000000 11.915746
RightHandThumb1 -24.326973 -32.862282 -0.000000
LeftUpLeg -46.040477 42.597997 -18.029565
LeftLeg -5.786691 -0.000000 0.000000
LeftFoot -19.753171 15.071400 -19.428250
LeftToeBase 30.250005 -0.000000 -0.000000
RightUpLeg -5.751752 -26.156952 2.372666
RightLeg 82.950313 -0.000000 -0.000000
RightFoot 21.808088 -35.964444 -5.316197
RightToeBase 17.135796 -0.000000 -0.000000
2242
root -2.002015 37.273170 -5.604258 -135.228006 29.344332 -152.014825
Spine -11.525147 20.466805 -11.957971
Head -23.051243 19.435701 25.513764
LeftShoulder -3.524953 10.605392 8.841560
LeftArm 14.224353 -9.409786 -77.147175
LeftForeArm -0.000000 -5.587226 15.569163
LeftHand 6.690793 -0.000000 5.708525
LeftHandThumb1 -26.253704 33.147579 0.000000
RightShoulder -18.891331 -7.012539 9.036759
RightArm 7.825193 -30.885660 63.230915
RightForeArm -0.000000 -22.633741 30.307540
RightHand 6.501274 -0.000000 11.768765
RightHandThumb1 -24.326973 -32.862282 -0.000000
LeftUpLeg -45.614777 42.335324 -18.481732
LeftLeg -5.541299 -0.000000 0.000000
LeftFoot -19.616801 15.093263 -19.246902
LeftToeBase 30.058703 -0.000000 -0.000000
RightUpLeg -6.411815 -25.815957 3.020268
RightLeg 81.676448 -0.000000 -0.000000
RightFoot 20.039724 -35.317702 -4.132453
RightToeBase 17.594214 -0.000000 -0.000000
